<svg width="840" height="216" viewBox="0 0 840 216" fill="none" xmlns="http://www.w3.org/2000/svg">
<path d="M48 11V191L75.5 108.5V11H48Z" fill="#2563EB"/>
<path d="M165.689 206C151.616 206 140.487 174.333 109.398 174.333C78.3091 174.333 67.1795 206 53.1066 206C39.0337 206 54.8544 101 90.6342 101C126.414 101 179.762 206 165.689 206Z" fill="#93C5FD"/>
<circle cx="73" cy="147.667" r="5" fill="#2563EB"/>
<circle cx="71.75" cy="146.417" r="1.25" fill="white"/>
<circle cx="118" cy="141" r="5" fill="#2563EB"/>
<circle cx="116.75" cy="139.75" r="1.25" fill="white"/>
<path d="M296.32 109.6H373.12V96.8H296.32V109.6ZM364 51.9999V164H377.6V51.9999H364ZM288.8 51.9999V164H302.4V51.9999H288.8Z" fill="black"/>
<path d="M408.135 141.28C408.135 138.613 408.775 136.32 410.055 134.4C411.335 132.48 413.255 130.987 415.815 129.92C418.482 128.853 421.895 128.32 426.055 128.32C430.535 128.32 434.748 128.907 438.695 130.08C442.642 131.147 446.482 132.96 450.215 135.52V128C449.468 127.04 448.028 125.813 445.895 124.32C443.762 122.72 440.882 121.333 437.255 120.16C433.735 118.88 429.308 118.24 423.975 118.24C414.908 118.24 407.815 120.427 402.695 124.8C397.682 129.067 395.175 134.773 395.175 141.92C395.175 146.933 396.348 151.2 398.695 154.72C401.042 158.24 404.135 160.96 407.975 162.88C411.922 164.693 416.135 165.6 420.615 165.6C424.668 165.6 428.722 164.853 432.775 163.36C436.935 161.867 440.402 159.573 443.175 156.48C446.055 153.387 447.495 149.493 447.495 144.8L444.935 135.2C444.935 139.04 443.975 142.453 442.055 145.44C440.242 148.32 437.735 150.56 434.535 152.16C431.442 153.76 427.922 154.56 423.975 154.56C420.882 154.56 418.108 154.08 415.655 153.12C413.308 152.053 411.442 150.507 410.055 148.48C408.775 146.453 408.135 144.053 408.135 141.28ZM406.215 107.36C407.388 106.507 408.988 105.493 411.015 104.32C413.042 103.147 415.495 102.133 418.375 101.28C421.362 100.427 424.668 100 428.295 100C430.535 100 432.668 100.213 434.695 100.64C436.722 101.067 438.482 101.76 439.975 102.72C441.575 103.68 442.802 105.013 443.655 106.72C444.508 108.32 444.935 110.4 444.935 112.96V164H457.735V111.2C457.735 106.4 456.508 102.347 454.055 99.04C451.708 95.7333 448.348 93.2266 443.975 91.52C439.708 89.7066 434.695 88.7999 428.935 88.7999C422.108 88.7999 416.242 89.8133 411.335 91.84C406.535 93.8666 402.748 95.8933 399.975 97.92L406.215 107.36Z" fill="black"/>
<path d="M491.406 39.2H478.606V164H491.406V39.2ZM553.006 127.2C553.006 119.2 551.353 112.373 548.046 106.72C544.74 100.96 540.313 96.5333 534.766 93.44C529.326 90.3466 523.246 88.7999 516.526 88.7999C510.446 88.7999 505.06 90.3466 500.366 93.44C495.78 96.5333 492.153 100.96 489.486 106.72C486.926 112.373 485.646 119.2 485.646 127.2C485.646 135.093 486.926 141.92 489.486 147.68C492.153 153.44 495.78 157.867 500.366 160.96C505.06 164.053 510.446 165.6 516.526 165.6C523.246 165.6 529.326 164.053 534.766 160.96C540.313 157.867 544.74 153.44 548.046 147.68C551.353 141.92 553.006 135.093 553.006 127.2ZM540.046 127.2C540.046 132.853 538.873 137.653 536.526 141.6C534.286 145.547 531.246 148.533 527.406 150.56C523.673 152.587 519.513 153.6 514.926 153.6C511.193 153.6 507.513 152.587 503.886 150.56C500.26 148.533 497.273 145.547 494.926 141.6C492.58 137.653 491.406 132.853 491.406 127.2C491.406 121.547 492.58 116.747 494.926 112.8C497.273 108.853 500.26 105.867 503.886 103.84C507.513 101.813 511.193 100.8 514.926 100.8C519.513 100.8 523.673 101.813 527.406 103.84C531.246 105.867 534.286 108.853 536.526 112.8C538.873 116.747 540.046 121.547 540.046 127.2Z" fill="black"/>
<path d="M570.656 60C570.656 62.3466 571.51 64.4266 573.216 66.24C575.03 67.9466 577.11 68.8 579.456 68.8C581.91 68.8 583.99 67.9466 585.696 66.24C587.403 64.4266 588.256 62.3466 588.256 60C588.256 57.5466 587.403 55.4666 585.696 53.76C583.99 52.0533 581.91 51.1999 579.456 51.1999C577.11 51.1999 575.03 52.0533 573.216 53.76C571.51 55.4666 570.656 57.5466 570.656 60ZM573.056 90.4V164H585.856V90.4H573.056Z" fill="black"/>
<path d="M601.019 90.4V102.4H637.819V90.4H601.019ZM613.019 64.8V164H625.819V64.8H613.019Z" fill="black"/>
<path d="M663.456 135.2V90.4H650.656V136.8C650.656 145.547 652.95 152.533 657.536 157.76C662.123 162.987 668.256 165.6 675.936 165.6C680.843 165.6 685.11 164.533 688.736 162.4C692.363 160.16 695.403 156.853 697.856 152.48V164H710.656V90.4H697.856V135.2C697.856 138.827 697.056 142.027 695.456 144.8C693.963 147.573 691.776 149.76 688.896 151.36C686.123 152.853 682.87 153.6 679.136 153.6C674.016 153.6 670.123 152 667.456 148.8C664.79 145.6 663.456 141.067 663.456 135.2Z" fill="black"/>
<path d="M740.479 141.28C740.479 138.613 741.119 136.32 742.399 134.4C743.679 132.48 745.599 130.987 748.159 129.92C750.825 128.853 754.239 128.32 758.399 128.32C762.879 128.32 767.092 128.907 771.039 130.08C774.985 131.147 778.825 132.96 782.559 135.52V128C781.812 127.04 780.372 125.813 778.239 124.32C776.105 122.72 773.225 121.333 769.599 120.16C766.079 118.88 761.652 118.24 756.319 118.24C747.252 118.24 740.159 120.427 735.039 124.8C730.025 129.067 727.519 134.773 727.519 141.92C727.519 146.933 728.692 151.2 731.039 154.72C733.385 158.24 736.479 160.96 740.319 162.88C744.265 164.693 748.479 165.6 752.959 165.6C757.012 165.6 761.065 164.853 765.119 163.36C769.279 161.867 772.745 159.573 775.519 156.48C778.399 153.387 779.839 149.493 779.839 144.8L777.279 135.2C777.279 139.04 776.319 142.453 774.399 145.44C772.585 148.32 770.079 150.56 766.879 152.16C763.785 153.76 760.265 154.56 756.319 154.56C753.225 154.56 750.452 154.08 747.999 153.12C745.652 152.053 743.785 150.507 742.399 148.48C741.119 146.453 740.479 144.053 740.479 141.28ZM738.559 107.36C739.732 106.507 741.332 105.493 743.359 104.32C745.385 103.147 747.839 102.133 750.719 101.28C753.705 100.427 757.012 100 760.639 100C762.879 100 765.012 100.213 767.039 100.64C769.065 101.067 770.825 101.76 772.319 102.72C773.919 103.68 775.145 105.013 775.999 106.72C776.852 108.32 777.279 110.4 777.279 112.96V164H790.079V111.2C790.079 106.4 788.852 102.347 786.399 99.04C784.052 95.7333 780.692 93.2266 776.319 91.52C772.052 89.7066 767.039 88.7999 761.279 88.7999C754.452 88.7999 748.585 89.8133 743.679 91.84C738.879 93.8666 735.092 95.8933 732.319 97.92L738.559 107.36Z" fill="black"/>
<path d="M811.75 39.2V164H824.55V39.2H811.75Z" fill="black"/>
</svg>
