<svg width="900" height="500" viewBox="0 0 900 500" fill="none" xmlns="http://www.w3.org/2000/svg">
<path opacity="0.1" d="M128.216 483.292C168.389 483.292 200.956 473.398 200.956 461.192C200.956 448.987 168.389 439.092 128.216 439.092C88.0424 439.092 55.4756 448.987 55.4756 461.192C55.4756 473.398 88.0424 483.292 128.216 483.292Z" fill="#2563EB"/>
<path opacity="0.1" d="M463.356 423.442C692.178 423.442 877.676 409.841 877.676 393.062C877.676 376.284 692.178 362.682 463.356 362.682C234.533 362.682 49.0356 376.284 49.0356 393.062C49.0356 409.841 234.533 423.442 463.356 423.442Z" fill="#2563EB"/>
<path d="M570.626 284.872C570.626 284.872 599.166 297.762 612.976 297.762C612.976 297.762 627.706 301.442 635.976 305.132C644.246 308.822 676.486 310.652 676.486 310.652C676.486 310.652 714.236 324.462 718.836 330.912C723.436 337.362 737.246 307.912 737.246 307.912L729.876 289.502L590.876 262.802L570.626 284.872Z" fill="#FFB9B9"/>
<path opacity="0.05" d="M570.626 284.872C570.626 284.872 599.166 297.762 612.976 297.762C612.976 297.762 627.706 301.442 635.976 305.132C644.246 308.822 676.486 310.652 676.486 310.652C676.486 310.652 714.236 324.462 718.836 330.912C723.436 337.362 737.246 307.912 737.246 307.912L729.876 289.502L590.876 262.802L570.626 284.872Z" fill="black"/>
<path d="M711.496 325.392C711.496 325.392 728.986 348.392 721.626 362.222C714.266 376.052 717.026 376.032 721.626 376.952C726.226 377.872 752.006 383.402 754.776 363.142C757.546 342.882 763.066 297.772 763.066 297.772L725.266 294.082C725.266 294.082 735.436 328.152 711.496 325.392Z" fill="#737A9D"/>
<path d="M494.206 254.492L573.386 291.322C573.386 291.322 598.246 271.982 596.386 261.862L504.316 239.762L494.206 254.492Z" fill="#4C4C78"/>
<path opacity="0.1" d="M494.206 254.492L573.386 291.322C573.386 291.322 598.246 271.982 596.386 261.862L504.316 239.762L494.206 254.492Z" fill="black"/>
<path d="M826.586 302.372L818.266 322.622L798.966 327.202C793.558 322.689 787.773 318.647 781.676 315.122C771.286 309.122 757.616 303.252 744.676 304.182C744.676 304.182 693.116 295.892 690.356 292.182C690.356 292.182 657.206 284.812 649.846 285.732C646.296 286.172 638.666 283.622 631.726 280.852C624.276 277.852 617.616 274.682 617.616 274.682L641.556 236.932C644.348 238.134 647.222 239.136 650.156 239.932C659.306 242.612 675.776 246.092 699.566 246.092C738.236 246.092 791.636 285.682 791.636 285.682C791.636 285.682 792.166 285.862 793.076 286.132C797.076 287.342 808.476 290.192 813.736 285.682C820.136 280.272 826.586 302.372 826.586 302.372Z" fill="#FFB9B9"/>
<path opacity="0.1" d="M826.586 302.372L818.266 322.622L798.966 327.202C793.558 322.689 787.773 318.647 781.676 315.122C809.756 317.232 792.986 286.232 792.986 286.232H793.046C797.046 287.442 808.446 290.292 813.706 285.782C820.136 280.272 826.586 302.372 826.586 302.372Z" fill="black"/>
<path d="M781.786 315.902C781.786 315.902 804.056 347.132 794.686 364.722C785.316 382.312 788.826 382.302 794.686 383.482C800.546 384.662 833.376 391.692 836.886 365.902C839.586 346.072 837.216 308.012 835.976 291.492C835.896 290.449 835.611 289.433 835.135 288.501C834.659 287.57 834.003 286.742 833.205 286.067C832.406 285.391 831.482 284.881 830.484 284.566C829.487 284.251 828.437 284.138 827.396 284.232L794.826 287.232C794.826 287.232 812.266 319.422 781.786 315.902Z" fill="#737A9D"/>
<path d="M252.976 346.562L253.896 391.682L264.026 399.042H299.016L305.456 389.842V346.562L295.326 337.352H262.186L252.976 346.562Z" fill="#2563EB"/>
<path opacity="0.2" d="M258.496 347.482C258.496 347.482 264.946 388.912 258.496 392.602L253.896 391.682L252.976 347.492L258.496 347.482Z" fill="white"/>
<path d="M333.996 343.802L341.366 336.432H376.366L383.736 343.802C383.736 343.802 392.946 370.502 385.576 387.992L377.266 396.282H342.266L333.976 388.912L333.996 343.802Z" fill="#2563EB"/>
<path opacity="0.1" d="M252.976 346.562L253.896 391.682L264.026 399.042H299.016L305.456 389.842V346.562L295.326 337.352H262.186L252.976 346.562Z" fill="black"/>
<path opacity="0.1" d="M333.996 343.802L341.366 336.432H376.366L383.736 343.802C383.736 343.802 392.946 370.502 385.576 387.992L377.266 396.282H342.266L333.976 388.912L333.996 343.802Z" fill="black"/>
<path opacity="0.2" d="M342.266 345.642C342.266 345.642 349.636 377.872 342.266 388.912H333.976V343.802L342.266 345.642Z" fill="white"/>
<path d="M305.456 190.962C305.456 190.962 309.136 226.872 309.136 231.472C309.136 236.072 307.296 266.472 312.816 295.922C318.336 325.372 309.136 362.202 309.136 362.202H339.516L352.406 262.762L343.196 210.282L339.516 193.712L305.456 190.962Z" fill="#FFB9B9"/>
<path opacity="0.05" d="M305.456 190.962C305.456 190.962 309.136 226.872 309.136 231.472C309.136 236.072 307.296 266.472 312.816 295.922C318.336 325.372 309.136 362.202 309.136 362.202H339.516L352.406 262.762L343.196 210.282L339.516 193.712L305.456 190.962Z" fill="black"/>
<path d="M299.936 99.8121C299.936 99.8121 259.426 100.732 291.646 167.942C291.646 167.942 299.936 195.562 299.936 200.172C299.936 204.782 341.366 204.772 345.936 200.172C350.506 195.572 338.566 157.822 338.566 140.322C338.566 122.822 326.636 94.2921 299.936 99.8121Z" fill="#CBCDDA"/>
<path opacity="0.05" d="M299.936 99.8121C299.936 99.8121 259.426 100.732 291.646 167.942C291.646 167.942 299.936 195.562 299.936 200.172C299.936 204.782 341.366 204.772 345.936 200.172C350.506 195.572 338.566 157.822 338.566 140.322C338.566 122.822 326.636 94.2921 299.936 99.8121Z" fill="black"/>
<path d="M251.136 60.2021C251.136 60.2021 286.136 97.9521 315.586 70.3321L311.906 167.932C311.906 167.932 264.026 109.932 230.906 114.532L251.136 60.2021Z" fill="#FFB9B9"/>
<path opacity="0.1" d="M650.116 240.042C648.716 250.832 644.316 273.552 631.686 280.912C624.236 277.912 617.576 274.742 617.576 274.742L641.516 236.992C644.306 238.211 647.18 239.23 650.116 240.042V240.042Z" fill="black"/>
<path d="M647.966 234.202C647.966 234.202 645.206 279.322 623.106 283.002L489.626 258.922C483.147 257.745 477.056 254.998 471.886 250.922C466.496 246.682 459.886 240.922 455.976 235.642C453.856 232.762 452.576 230.012 452.786 227.742C453.706 217.612 494.216 193.672 480.406 151.322C482.369 149.768 484.553 148.514 486.886 147.602C498.416 142.812 524.956 139.292 563.266 178.942C563.266 178.992 634.156 236.082 647.966 234.202Z" fill="#4C4C78"/>
<path d="M287.046 350.242L287.966 395.362L298.086 402.732H333.076L339.526 393.522V350.242L329.396 341.042H296.246L287.046 350.242Z" fill="#2563EB"/>
<path opacity="0.2" d="M292.566 351.202C292.566 351.202 299.016 392.632 292.566 396.322L287.966 395.402L287.046 351.202H292.566Z" fill="white"/>
<path d="M388.326 346.562L395.696 339.192H430.696L438.066 346.562C438.066 346.562 447.276 373.262 439.906 390.752L431.616 399.042H396.616L388.326 391.672V346.562Z" fill="#2563EB"/>
<path opacity="0.2" d="M396.606 348.402C396.606 348.402 403.976 380.632 396.606 391.672H388.316V346.562L396.606 348.402Z" fill="white"/>
<path d="M339.266 364.062H389.076C392.976 364.062 396.136 367.562 396.136 371.892C396.136 376.212 392.976 379.722 389.076 379.722H339.266C335.036 379.722 331.756 375.632 332.266 370.982C332.676 367.032 335.696 364.062 339.266 364.062Z" fill="#2563EB"/>
<path opacity="0.1" d="M483.156 220.422C473.306 227.322 462.926 231.842 455.966 235.692C453.846 232.812 452.566 230.062 452.776 227.792C453.696 217.662 494.206 193.722 480.396 151.372C482.359 149.818 484.543 148.564 486.876 147.652C489.039 147.606 491.19 147.311 493.286 146.772C493.286 146.772 501.566 207.532 483.156 220.422Z" fill="black"/>
<path d="M276.456 131.572C276.456 131.572 290.266 145.382 303.616 154.132C315.936 162.202 293.946 80.9322 293.946 80.9322C293.946 80.9322 307.586 69.9322 315.596 63.4022C320.945 59.0013 327.761 56.7864 334.676 57.2021C353.106 58.3921 386.866 66.1421 414.106 103.502C453.696 157.822 489.606 146.772 489.606 146.772C489.606 146.772 497.896 207.542 479.476 220.432C461.056 233.322 440.806 237.922 444.476 245.292C448.146 252.662 427.906 209.382 381.866 202.022C335.826 194.662 285.186 162.432 286.116 146.782C286.126 146.772 272.776 136.202 276.456 131.572Z" fill="#CBCDDA"/>
<path opacity="0.1" d="M266.786 84.2021C266.781 81.5402 266.547 78.8837 266.086 76.2621C254.026 70.2621 255.736 62.1021 255.736 62.1021L235.476 116.422C242.886 115.422 251.036 117.502 259.216 121.422C269.986 112.912 266.786 98.8921 266.786 84.2021Z" fill="black"/>
<path d="M226.276 129.282C251.703 129.282 272.316 108.669 272.316 83.2421C272.316 57.8149 251.703 37.2021 226.276 37.2021C200.848 37.2021 180.236 57.8149 180.236 83.2421C180.236 108.669 200.848 129.282 226.276 129.282Z" fill="#FFB9B9"/>
<path opacity="0.1" d="M184.446 93.6221C183.596 96.3521 182.286 99.1621 179.816 100.622C176.816 102.402 172.676 101.522 170.006 99.2221C167.336 96.9221 165.896 93.4821 165.146 90.0421C164.065 85.0613 164.237 79.8903 165.646 74.9921C166.846 70.8421 168.916 66.9921 169.786 62.7421C170.716 58.2221 170.246 53.4921 171.286 48.9921C172.696 42.8921 176.716 37.7821 180.636 32.8921C181.864 31.0256 183.456 29.426 185.317 28.1888C187.178 26.9517 189.269 26.1026 191.466 25.6921L210.736 19.8821C214.389 18.6586 218.144 17.7617 221.956 17.2021C226.856 16.7004 231.807 17.1348 236.546 18.4821C240.319 19.4312 243.899 21.0283 247.126 23.2021C250.323 25.5774 253.138 28.4269 255.476 31.6521C265.666 44.9721 271.476 66.7621 281.986 79.8721C277.836 81.1521 273.686 76.8721 269.536 78.1721C268.946 78.4264 268.288 78.4792 267.666 78.3221C267.048 77.987 266.565 77.4506 266.296 76.8021C262.638 70.4136 256.882 65.488 250.006 62.8621C244.906 60.9321 238.006 60.9421 235.216 65.6221C233.326 68.7821 234.086 72.7721 234.586 76.4221C235.086 80.0721 234.996 84.4221 232.106 86.6721C230.508 87.7515 228.65 88.3802 226.726 88.4921C217.756 89.6677 208.637 88.7749 200.066 85.8821C197.066 84.8821 194.016 81.7521 190.846 82.7521C186.566 84.1021 185.576 89.9921 184.446 93.6221Z" fill="black"/>
<path d="M183.436 92.6121C182.586 95.3421 181.276 98.1521 178.806 99.6121C175.806 101.392 171.666 100.512 168.996 98.2121C166.326 95.9121 164.886 92.4721 164.136 89.0321C163.055 84.0513 163.227 78.8803 164.636 73.9821C165.836 69.8321 167.906 65.9821 168.776 61.7321C169.706 57.2121 169.236 52.4821 170.276 47.9821C171.686 41.8821 175.706 36.7721 179.626 31.8821C180.854 30.0156 182.446 28.416 184.307 27.1789C186.168 25.9418 188.259 25.0926 190.456 24.6821L209.726 18.8721C213.379 17.652 217.134 16.7585 220.946 16.2021C225.846 15.7004 230.797 16.1348 235.536 17.4821C239.309 18.4312 242.889 20.0283 246.116 22.2021C249.313 24.5774 252.128 27.4269 254.466 30.6521C264.656 43.9721 270.466 65.7621 280.976 78.8721C276.826 80.1521 272.676 75.8721 268.526 77.1721C267.936 77.4264 267.278 77.4792 266.656 77.3221C266.031 76.9906 265.54 76.4537 265.266 75.8021C261.608 69.4136 255.852 64.488 248.976 61.8621C243.876 59.9321 236.976 59.9421 234.186 64.6221C232.296 67.7821 233.056 71.7721 233.556 75.4221C234.056 79.0721 233.966 83.4221 231.076 85.6721C229.478 86.7515 227.62 87.3802 225.696 87.4921C216.726 88.6677 207.607 87.7749 199.036 84.8821C196.036 83.8821 192.986 80.7521 189.816 81.7521C185.556 83.0921 184.566 88.9821 183.436 92.6121Z" fill="#B96B6B"/>
<g opacity="0.1">
<path opacity="0.1" d="M297.066 78.4221L293.946 80.9421C293.946 80.9421 306.836 128.572 307.346 147.282C313.926 145.502 301.266 94.5421 297.066 78.4221Z" fill="black"/>
<path opacity="0.1" d="M481.266 213.062C462.856 225.952 442.596 230.552 446.266 237.922C449.936 245.292 429.696 202.012 383.656 194.652C340.466 187.742 293.226 158.952 288.306 142.492C281.406 136.592 276.386 131.582 276.386 131.582C272.706 136.182 286.056 146.772 286.056 146.772C285.136 162.422 335.776 194.652 381.806 202.012C427.836 209.372 448.096 252.652 444.416 245.282C440.736 237.912 460.986 233.282 479.416 220.422C484.686 216.732 487.766 209.122 489.486 200.132C487.706 205.822 485.066 210.432 481.266 213.062Z" fill="black"/>
</g>
<path d="M388.326 301.452C385.566 305.132 383.726 342.882 383.726 342.882C383.726 342.882 394.726 397.202 360.726 391.682C326.726 386.162 356.126 347.492 356.126 347.492L351.526 294.092C334.036 248.092 337.716 214.912 337.716 214.912L334.446 184.842L333.106 172.562L372.696 163.352C371.616 164.792 372.076 173.772 373.046 184.202C374.556 200.542 377.296 220.432 377.296 220.432C385.556 229.632 391.086 297.762 388.326 301.452Z" fill="#FFB9B9"/>
<path opacity="0.1" d="M332.156 80.4821C332.156 80.4821 291.646 81.4021 323.866 148.612C323.866 148.612 332.156 176.232 332.156 180.842C332.156 185.452 373.586 185.442 378.156 180.842C382.726 176.242 370.786 138.492 370.786 120.992C370.786 103.492 358.856 74.9521 332.156 80.4821Z" fill="black"/>
<path opacity="0.1" d="M373.016 184.202C364.416 186.552 343.336 186.762 334.406 184.842L333.066 172.562L372.656 163.352C371.596 164.782 372.056 173.762 373.016 184.202Z" fill="black"/>
<path d="M330.316 80.4821C330.316 80.4821 289.806 81.4021 322.026 148.612C322.026 148.612 330.316 176.232 330.316 180.842C330.316 185.452 371.746 185.442 376.316 180.842C380.886 176.242 368.946 138.492 368.946 120.992C368.946 103.492 357.016 74.9521 330.316 80.4821Z" fill="#CBCDDA"/>
<g opacity="0.5">
<path opacity="0.5" d="M65.3056 224.612L35.9856 225.212L31.2056 231.792V254.532L37.1856 258.722H65.3056L71.2956 252.142V230.602L65.3056 224.612Z" fill="#2563EB"/>
<path opacity="0.2" d="M64.7156 228.202C64.7156 228.202 37.7856 232.392 35.3956 228.202L35.9956 225.202L64.7156 224.602V228.202Z" fill="white"/>
<path opacity="0.5" d="M67.7056 290.432L72.4956 295.222V317.962L67.7056 322.752C67.7056 322.752 50.3556 328.752 38.9856 323.952L33.5956 318.562V295.822L38.3856 290.432H67.7056Z" fill="#2563EB"/>
<path opacity="0.2" d="M66.5056 295.822C66.5056 295.822 45.5656 300.612 38.3856 295.822V290.432H67.7056L66.5056 295.822Z" fill="white"/>
<path opacity="0.5" d="M56.3356 258.562V290.932C56.2658 292.214 55.6912 293.417 54.7375 294.277C53.7837 295.137 52.5283 295.585 51.2456 295.522C49.9628 295.585 48.7074 295.137 47.7537 294.277C46.7999 293.417 46.2254 292.214 46.1556 290.932V258.562C46.1556 255.812 48.8156 253.682 51.8356 254.002C53.0163 254.072 54.1293 254.577 54.9601 255.419C55.7909 256.261 56.2809 257.381 56.3356 258.562V258.562Z" fill="#2563EB"/>
<path opacity="0.5" d="M112.266 225.532L82.9456 226.132L78.1556 232.712V255.452L84.1456 259.642H112.266L118.246 253.062V231.522L112.266 225.532Z" fill="#2563EB"/>
<path opacity="0.2" d="M111.666 229.132C111.666 229.132 84.7356 233.322 82.3456 229.132L82.9456 226.132L111.666 225.532V229.132Z" fill="white"/>
<path opacity="0.5" d="M114.656 291.362L119.446 296.152V318.892L114.656 323.682C114.656 323.682 97.3056 329.682 85.9356 324.882L80.5456 319.492V296.742L85.3356 291.352L114.656 291.362Z" fill="#2563EB"/>
<path opacity="0.2" d="M113.466 296.742C113.466 296.742 92.5256 301.532 85.3456 296.742V291.352H114.666L113.466 296.742Z" fill="white"/>
<path opacity="0.5" d="M103.266 259.482V291.852C103.196 293.134 102.621 294.337 101.667 295.197C100.714 296.057 99.4583 296.505 98.1756 296.442V296.442C96.8928 296.505 95.6374 296.057 94.6837 295.197C93.7299 294.337 93.1554 293.134 93.0856 291.852V259.482C93.0856 256.732 95.7456 254.602 98.7656 254.922C99.9463 254.992 101.059 255.497 101.89 256.339C102.721 257.181 103.211 258.301 103.266 259.482V259.482Z" fill="#2563EB"/>
<path opacity="0.5" d="M172.046 242.852L147.906 243.342L143.966 248.762V267.482L148.896 270.922H172.046L176.966 265.502V247.772L172.046 242.852Z" fill="#2563EB"/>
<path opacity="0.2" d="M171.546 245.802C171.546 245.802 149.376 249.252 147.406 245.802L147.896 243.342L171.536 242.852L171.546 245.802Z" fill="white"/>
<path opacity="0.5" d="M174.016 297.032L177.956 300.972V319.692L174.016 323.632C174.016 323.632 159.736 328.562 150.376 324.632L145.936 320.202V301.462L149.876 297.032H174.016Z" fill="#2563EB"/>
<path opacity="0.2" d="M173.026 301.462C173.026 301.462 155.786 305.402 149.876 301.462V297.032H174.016L173.026 301.462Z" fill="white"/>
<path opacity="0.5" d="M164.656 270.792V297.442C164.594 298.494 164.119 299.48 163.334 300.184C162.549 300.888 161.519 301.254 160.466 301.202C159.409 301.254 158.376 300.885 157.59 300.177C156.805 299.469 156.332 298.478 156.276 297.422V270.792C156.31 270.228 156.463 269.678 156.723 269.177C156.983 268.676 157.345 268.234 157.785 267.881C158.226 267.528 158.736 267.271 159.282 267.126C159.828 266.982 160.398 266.953 160.956 267.042V267.042C161.926 267.1 162.841 267.515 163.524 268.208C164.208 268.9 164.61 269.821 164.656 270.792Z" fill="#2563EB"/>
<path opacity="0.5" d="M210.696 243.602L186.556 244.102L182.616 249.512V268.232L187.546 271.682H210.696L215.626 266.262V248.532L210.696 243.602Z" fill="#2563EB"/>
<path opacity="0.2" d="M210.206 246.562C210.206 246.562 188.036 250.012 186.066 246.562L186.556 244.102L210.196 243.612L210.206 246.562Z" fill="white"/>
<path opacity="0.5" d="M212.666 297.792L216.606 301.732V320.452L212.666 324.392C212.666 324.392 198.386 329.322 189.026 325.392L184.596 320.962V302.202L188.536 297.772L212.666 297.792Z" fill="#2563EB"/>
<path opacity="0.2" d="M211.686 302.202C211.686 302.202 194.446 306.142 188.536 302.202V297.772H212.666L211.686 302.202Z" fill="white"/>
<path opacity="0.5" d="M203.266 271.552V298.202C203.209 299.258 202.736 300.249 201.951 300.957C201.166 301.665 200.132 302.034 199.076 301.982C198.019 302.034 196.986 301.665 196.2 300.957C195.415 300.249 194.942 299.258 194.886 298.202V271.552C194.92 270.988 195.073 270.438 195.333 269.937C195.593 269.436 195.955 268.994 196.395 268.641C196.836 268.288 197.346 268.031 197.892 267.886C198.438 267.742 199.008 267.713 199.566 267.802V267.802C200.536 267.86 201.451 268.275 202.134 268.968C202.818 269.66 203.22 270.581 203.266 271.552Z" fill="#2563EB"/>
</g>
<g opacity="0.8">
<path opacity="0.8" d="M107.446 404.202C107.446 404.202 93.2755 399.402 86.4455 411.892C84.6461 415.277 83.7302 419.062 83.7826 422.896C83.8351 426.729 84.8542 430.487 86.7455 433.822C91.2255 441.922 100.456 452.432 117.946 451.502C132.786 450.712 137.716 439.382 139.056 428.852C139.568 424.902 139.058 420.887 137.575 417.191C136.092 413.495 133.684 410.241 130.584 407.741C127.483 405.242 123.792 403.58 119.865 402.914C115.938 402.249 111.907 402.603 108.156 403.942L107.446 404.202Z" fill="#2563EB"/>
<path opacity="0.1" d="M89.7555 434.932C87.8642 431.597 86.8451 427.839 86.7926 424.006C86.7402 420.172 87.6561 416.387 89.4555 413.002C96.2755 400.512 110.456 405.312 110.456 405.312L111.186 405.052C116.588 403.097 122.525 403.229 127.836 405.422C124.902 403.672 121.617 402.596 118.217 402.271C114.817 401.946 111.387 402.38 108.176 403.542L107.446 403.802C107.446 403.802 93.2755 399.002 86.4455 411.492C84.6461 414.877 83.7302 418.662 83.7826 422.496C83.8351 426.329 84.8542 430.087 86.7455 433.422C89.7455 438.752 94.7455 445.122 102.746 448.592C97.252 445.307 92.7602 440.584 89.7555 434.932V434.932Z" fill="white"/>
<path opacity="0.2" d="M100.126 410.202C100.126 410.202 105.376 414.332 118.126 410.202Z" fill="black"/>
<path opacity="0.8" d="M99.0056 380.202C99.0056 380.202 108.006 404.602 107.266 410.982L114.396 410.232C114.396 410.232 102.396 388.842 105.396 380.232L99.0056 380.202Z" fill="#2563EB"/>
<path opacity="0.2" d="M99.0056 380.202C99.0056 380.202 108.006 404.602 107.266 410.982L114.396 410.232C114.396 410.232 102.396 388.842 105.396 380.232L99.0056 380.202Z" fill="black"/>
<path opacity="0.8" d="M135.766 382.202C135.766 382.202 121.586 374.952 115.246 380.942C108.906 386.932 107.926 402.242 107.926 402.242C107.926 402.242 131.046 405.432 135.766 382.202Z" fill="#2563EB"/>
<path opacity="0.1" d="M135.766 382.202C135.766 382.202 121.586 374.952 115.246 380.942C108.906 386.932 107.926 402.242 107.926 402.242C107.926 402.242 131.046 405.432 135.766 382.202Z" fill="white"/>
<path opacity="0.8" d="M107.926 402.202C107.926 402.202 111.646 384.432 135.766 382.202" stroke="#6C63FF" stroke-miterlimit="10"/>
</g>
<path d="M167.266 426.292C167.266 426.292 153.096 421.492 146.266 433.982C144.466 437.367 143.55 441.152 143.603 444.986C143.655 448.819 144.674 452.577 146.566 455.912C151.046 464.012 160.276 474.522 177.766 473.592C192.606 472.802 197.536 461.472 198.876 450.942C199.388 446.992 198.878 442.977 197.395 439.281C195.912 435.585 193.504 432.331 190.404 429.831C187.303 427.332 183.612 425.67 179.685 425.004C175.758 424.339 171.727 424.693 167.976 426.032L167.266 426.292Z" fill="#2563EB"/>
<path opacity="0.1" d="M149.606 457.032C147.714 453.697 146.695 449.939 146.643 446.106C146.59 442.272 147.506 438.487 149.306 435.102C156.126 422.612 170.306 427.412 170.306 427.412L171.036 427.152C176.438 425.197 182.375 425.329 187.686 427.522C184.752 425.772 181.467 424.696 178.067 424.371C174.667 424.046 171.237 424.48 168.026 425.642L167.296 425.902C167.296 425.902 153.126 421.102 146.296 433.592C144.496 436.977 143.58 440.762 143.633 444.596C143.685 448.429 144.704 452.187 146.596 455.522C149.596 460.852 154.596 467.222 162.596 470.692C157.102 467.407 152.61 462.684 149.606 457.032Z" fill="white"/>
<path opacity="0.2" d="M159.976 432.292C159.976 432.292 165.226 436.422 177.976 432.292Z" fill="black"/>
<path d="M158.846 402.272C158.846 402.272 167.846 426.672 167.106 433.052L174.236 432.302C174.236 432.302 162.236 410.912 165.236 402.302L158.846 402.272Z" fill="#2563EB"/>
<path opacity="0.2" d="M158.846 402.272C158.846 402.272 167.846 426.672 167.106 433.052L174.236 432.302C174.236 432.302 162.236 410.912 165.236 402.302L158.846 402.272Z" fill="black"/>
<path d="M195.616 404.302C195.616 404.302 181.436 397.052 175.096 403.042C168.756 409.032 167.776 424.342 167.776 424.342C167.776 424.342 190.896 427.522 195.616 404.302Z" fill="#2563EB"/>
<path opacity="0.1" d="M195.616 404.302C195.616 404.302 181.436 397.052 175.096 403.042C168.756 409.032 167.776 424.342 167.776 424.342C167.776 424.342 190.896 427.522 195.616 404.302Z" fill="white"/>
<path d="M167.776 424.342C167.776 424.342 171.496 406.572 195.616 404.342" stroke="#6C63FF" stroke-miterlimit="10"/>
<path d="M53.2656 368.372C53.2656 368.372 54.6556 366.822 52.0456 366.202V363.652H53.6156C53.6143 360.57 52.555 357.581 50.6147 355.185C48.6744 352.79 45.9707 351.133 42.9556 350.492V347.402H43.3656V343.402H33.2656V347.402H33.5555V350.532C30.5804 351.208 27.9229 352.874 26.0188 355.258C24.1147 357.641 23.0769 360.601 23.0756 363.652H24.4756V366.102C24.4756 366.102 21.1556 367.672 24.4756 370.472C27.7956 373.272 27.2756 375.362 27.2756 375.362C27.2756 375.362 25.8756 380.602 23.0856 381.302V430.052C23.0856 432.924 24.2266 435.679 26.2576 437.71C28.2886 439.741 31.0433 440.882 33.9156 440.882H42.4756C45.3392 440.872 48.0821 439.727 50.1041 437.7C52.1262 435.672 53.2629 432.926 53.2656 430.062V381.302C53.2656 381.302 48.3756 377.632 49.2656 375.362C50.4263 372.938 51.7632 370.601 53.2656 368.372V368.372Z" fill="#2563EB"/>
</svg>
